<svg width="92" height="13" viewBox="0 0 92 13" fill="none" xmlns="http://www.w3.org/2000/svg">
<path d="M0.408 10L1.656 1.06H7.62L7.428 2.5H3.084L2.748 4.972H6.54L6.336 6.412H2.544L2.04 10H0.408ZM7.30725 10L8.57925 0.916H10.1633L8.89125 10H7.30725ZM13.7261 10.144C13.0861 10.144 12.5261 10.004 12.0461 9.724C11.5741 9.444 11.2061 9.064 10.9421 8.584C10.6861 8.096 10.5581 7.552 10.5581 6.952C10.5581 6.456 10.6421 5.992 10.8101 5.56C10.9861 5.12 11.2301 4.732 11.5421 4.396C11.8621 4.06 12.2301 3.8 12.6461 3.616C13.0621 3.424 13.5181 3.328 14.0141 3.328C14.6541 3.328 15.1981 3.46 15.6461 3.724C16.0941 3.988 16.4341 4.344 16.6661 4.792C16.8981 5.232 17.0141 5.728 17.0141 6.28C17.0141 6.424 17.0021 6.572 16.9781 6.724C16.9541 6.876 16.9221 7.028 16.8821 7.18H11.8421L11.9261 5.98H16.0661L15.2861 6.52C15.3901 6.16 15.3981 5.84 15.3101 5.56C15.2301 5.272 15.0741 5.044 14.8421 4.876C14.6181 4.708 14.3381 4.624 14.0021 4.624C13.5621 4.624 13.2061 4.732 12.9341 4.948C12.6701 5.164 12.4741 5.46 12.3461 5.836C12.2261 6.204 12.1661 6.616 12.1661 7.072C12.1661 7.424 12.2301 7.728 12.3581 7.984C12.4941 8.24 12.6821 8.436 12.9221 8.572C13.1621 8.7 13.4421 8.764 13.7621 8.764C14.1221 8.764 14.4381 8.684 14.7101 8.524C14.9821 8.364 15.1981 8.16 15.3581 7.912L16.6061 8.56C16.4541 8.872 16.2341 9.148 15.9461 9.388C15.6661 9.628 15.3341 9.816 14.9501 9.952C14.5741 10.08 14.1661 10.144 13.7261 10.144ZM20.1135 10.144C19.5935 10.144 19.1575 10.028 18.8055 9.796C18.4535 9.556 18.2015 9.224 18.0495 8.8C17.9055 8.376 17.8735 7.88 17.9535 7.312L18.4935 3.472H20.0775L19.5375 7.336C19.4975 7.608 19.5175 7.848 19.5975 8.056C19.6775 8.264 19.8095 8.424 19.9935 8.536C20.1775 8.648 20.3975 8.704 20.6535 8.704C20.9175 8.704 21.1535 8.648 21.3615 8.536C21.5775 8.416 21.7575 8.252 21.9015 8.044C22.0535 7.828 22.1455 7.58 22.1775 7.3L22.7175 3.472H24.2895L23.3775 10H21.8895L22.0575 8.716L22.1655 8.98C21.9655 9.38 21.6815 9.676 21.3135 9.868C20.9535 10.052 20.5535 10.144 20.1135 10.144ZM24.8385 10L25.7505 3.472H27.2385L27.0465 4.924L26.9385 4.708C27.1625 4.22 27.4465 3.88 27.7905 3.688C28.1425 3.496 28.5465 3.4 29.0025 3.4H29.3865L29.1945 4.792H28.6305C28.1825 4.792 27.8025 4.936 27.4905 5.224C27.1865 5.504 26.9905 5.924 26.9025 6.484L26.4225 10H24.8385ZM34.7476 10.144C34.1316 10.144 33.5916 10.012 33.1276 9.748C32.6636 9.484 32.2996 9.12 32.0356 8.656C31.7796 8.184 31.6516 7.644 31.6516 7.036C31.6516 6.484 31.7436 5.984 31.9276 5.536C32.1196 5.08 32.3796 4.688 32.7076 4.36C33.0436 4.032 33.4276 3.78 33.8596 3.604C34.2996 3.42 34.7636 3.328 35.2516 3.328C35.7716 3.328 36.2236 3.432 36.6076 3.64C36.9996 3.84 37.2996 4.116 37.5076 4.468L37.1716 4.768L37.6996 0.916H39.2956L38.0356 10H36.5356L36.7036 8.74L37.0516 8.98C36.8116 9.364 36.4836 9.656 36.0676 9.856C35.6596 10.048 35.2196 10.144 34.7476 10.144ZM34.9636 8.704C35.3556 8.704 35.6996 8.608 35.9956 8.416C36.2996 8.216 36.5356 7.952 36.7036 7.624C36.8716 7.288 36.9556 6.92 36.9556 6.52C36.9556 6.184 36.8836 5.884 36.7396 5.62C36.6036 5.356 36.4116 5.148 36.1636 4.996C35.9236 4.844 35.6396 4.768 35.3116 4.768C34.9196 4.768 34.5716 4.868 34.2676 5.068C33.9636 5.26 33.7236 5.52 33.5476 5.848C33.3796 6.176 33.2956 6.544 33.2956 6.952C33.2956 7.296 33.3636 7.6 33.4996 7.864C33.6436 8.12 33.8396 8.324 34.0876 8.476C34.3436 8.628 34.6356 8.704 34.9636 8.704ZM42.8589 10.144C42.2189 10.144 41.6589 10.004 41.1789 9.724C40.7069 9.444 40.3389 9.064 40.0749 8.584C39.8189 8.096 39.6909 7.552 39.6909 6.952C39.6909 6.456 39.7749 5.992 39.9429 5.56C40.1189 5.12 40.3629 4.732 40.6749 4.396C40.9949 4.06 41.3629 3.8 41.7789 3.616C42.1949 3.424 42.6509 3.328 43.1469 3.328C43.7869 3.328 44.3309 3.46 44.7789 3.724C45.2269 3.988 45.5669 4.344 45.7989 4.792C46.0309 5.232 46.1469 5.728 46.1469 6.28C46.1469 6.424 46.1349 6.572 46.1109 6.724C46.0869 6.876 46.0549 7.028 46.0149 7.18H40.9749L41.0589 5.98H45.1989L44.4189 6.52C44.5229 6.16 44.5309 5.84 44.4429 5.56C44.3629 5.272 44.2069 5.044 43.9749 4.876C43.7509 4.708 43.4709 4.624 43.1349 4.624C42.6949 4.624 42.3389 4.732 42.0669 4.948C41.8029 5.164 41.6069 5.46 41.4789 5.836C41.3589 6.204 41.2989 6.616 41.2989 7.072C41.2989 7.424 41.3629 7.728 41.4909 7.984C41.6269 8.24 41.8149 8.436 42.0549 8.572C42.2949 8.7 42.5749 8.764 42.8949 8.764C43.2549 8.764 43.5709 8.684 43.8429 8.524C44.1149 8.364 44.3309 8.16 44.4909 7.912L45.7389 8.56C45.5869 8.872 45.3669 9.148 45.0789 9.388C44.7989 9.628 44.4669 9.816 44.0829 9.952C43.7069 10.08 43.2989 10.144 42.8589 10.144ZM49.1111 10L50.3591 1.06H53.5631C54.1311 1.06 54.6271 1.164 55.0511 1.372C55.4751 1.58 55.8031 1.884 56.0351 2.284C56.2751 2.676 56.3951 3.16 56.3951 3.736C56.3951 4.312 56.2551 4.824 55.9751 5.272C55.7031 5.72 55.3151 6.072 54.8111 6.328C54.3151 6.576 53.7271 6.7 53.0471 6.7H51.2111L50.7431 10H49.1111ZM51.4151 5.26H53.1551C53.4671 5.26 53.7431 5.196 53.9831 5.068C54.2231 4.932 54.4111 4.748 54.5471 4.516C54.6831 4.284 54.7511 4.02 54.7511 3.724C54.7511 3.348 54.6311 3.052 54.3911 2.836C54.1591 2.612 53.8391 2.5 53.4311 2.5H51.7871L51.4151 5.26ZM58.5214 10.144C58.1054 10.144 57.7334 10.076 57.4054 9.94C57.0854 9.804 56.8334 9.604 56.6494 9.34C56.4654 9.076 56.3734 8.752 56.3734 8.368C56.3734 7.952 56.4774 7.596 56.6854 7.3C56.8934 7.004 57.1814 6.764 57.5494 6.58C57.9174 6.388 58.3414 6.256 58.8214 6.184L61.0174 5.836L60.8974 7.036L59.0494 7.36C58.7534 7.416 58.5054 7.52 58.3054 7.672C58.1054 7.816 58.0054 8.016 58.0054 8.272C58.0054 8.496 58.0854 8.664 58.2454 8.776C58.4134 8.888 58.6254 8.944 58.8814 8.944C59.2014 8.944 59.4894 8.872 59.7454 8.728C60.0014 8.576 60.2134 8.376 60.3814 8.128C60.5494 7.88 60.6494 7.608 60.6814 7.312L60.9094 5.68C60.9414 5.464 60.9054 5.284 60.8014 5.14C60.7054 4.988 60.5694 4.872 60.3934 4.792C60.2174 4.712 60.0254 4.672 59.8174 4.672C59.4574 4.672 59.1334 4.768 58.8454 4.96C58.5654 5.152 58.3494 5.396 58.1974 5.692L56.9614 4.996C57.1294 4.652 57.3574 4.36 57.6454 4.12C57.9414 3.872 58.2814 3.68 58.6654 3.544C59.0574 3.4 59.4734 3.328 59.9134 3.328C60.4414 3.328 60.9094 3.432 61.3174 3.64C61.7334 3.848 62.0494 4.132 62.2654 4.492C62.4814 4.852 62.5534 5.272 62.4814 5.752L61.8934 10H60.3934L60.5494 8.884L60.9454 8.896C60.7454 9.176 60.5214 9.408 60.2734 9.592C60.0254 9.776 59.7534 9.912 59.4574 10C59.1694 10.096 58.8574 10.144 58.5214 10.144ZM63.022 12.4L64.27 3.472H65.758L65.59 4.768L65.254 4.42C65.51 4.068 65.834 3.8 66.226 3.616C66.626 3.424 67.066 3.328 67.546 3.328C68.154 3.328 68.69 3.472 69.154 3.76C69.618 4.04 69.982 4.42 70.246 4.9C70.518 5.38 70.654 5.92 70.654 6.52C70.654 7.016 70.562 7.484 70.378 7.924C70.202 8.364 69.954 8.752 69.634 9.088C69.314 9.416 68.942 9.676 68.518 9.868C68.094 10.052 67.638 10.144 67.15 10.144C66.638 10.144 66.174 10.048 65.758 9.856C65.35 9.656 65.038 9.38 64.822 9.028L65.158 8.74L64.666 12.4H63.022ZM66.994 8.704C67.386 8.704 67.734 8.608 68.038 8.416C68.342 8.216 68.578 7.952 68.746 7.624C68.922 7.296 69.01 6.932 69.01 6.532C69.01 6.188 68.938 5.884 68.794 5.62C68.658 5.356 68.466 5.148 68.218 4.996C67.97 4.844 67.674 4.768 67.33 4.768C66.946 4.768 66.602 4.868 66.298 5.068C66.002 5.26 65.77 5.52 65.602 5.848C65.434 6.176 65.35 6.54 65.35 6.94C65.35 7.284 65.418 7.592 65.554 7.864C65.698 8.128 65.894 8.336 66.142 8.488C66.39 8.632 66.674 8.704 66.994 8.704ZM71.4088 10L72.3208 3.472H73.9048L72.9928 10H71.4088ZM72.4168 2.74L72.6568 1.06H74.2408L74.0128 2.74H72.4168ZM77.8277 10.144C77.1877 10.144 76.6277 10.004 76.1477 9.724C75.6757 9.444 75.3077 9.064 75.0437 8.584C74.7877 8.096 74.6597 7.552 74.6597 6.952C74.6597 6.456 74.7437 5.992 74.9117 5.56C75.0877 5.12 75.3317 4.732 75.6437 4.396C75.9637 4.06 76.3317 3.8 76.7477 3.616C77.1637 3.424 77.6197 3.328 78.1157 3.328C78.7557 3.328 79.2997 3.46 79.7477 3.724C80.1957 3.988 80.5357 4.344 80.7677 4.792C80.9997 5.232 81.1157 5.728 81.1157 6.28C81.1157 6.424 81.1037 6.572 81.0797 6.724C81.0557 6.876 81.0237 7.028 80.9837 7.18H75.9437L76.0277 5.98H80.1677L79.3877 6.52C79.4917 6.16 79.4997 5.84 79.4117 5.56C79.3317 5.272 79.1757 5.044 78.9437 4.876C78.7197 4.708 78.4397 4.624 78.1037 4.624C77.6637 4.624 77.3077 4.732 77.0357 4.948C76.7717 5.164 76.5757 5.46 76.4477 5.836C76.3277 6.204 76.2677 6.616 76.2677 7.072C76.2677 7.424 76.3317 7.728 76.4597 7.984C76.5957 8.24 76.7837 8.436 77.0237 8.572C77.2637 8.7 77.5437 8.764 77.8637 8.764C78.2237 8.764 78.5397 8.684 78.8117 8.524C79.0837 8.364 79.2997 8.16 79.4597 7.912L80.7077 8.56C80.5557 8.872 80.3357 9.148 80.0477 9.388C79.7677 9.628 79.4357 9.816 79.0517 9.952C78.6757 10.08 78.2677 10.144 77.8277 10.144ZM81.8151 10L82.7271 3.472H84.2151L84.0231 4.924L83.9151 4.708C84.1391 4.22 84.4231 3.88 84.7671 3.688C85.1191 3.496 85.5231 3.4 85.9791 3.4H86.3631L86.1711 4.792H85.6071C85.1591 4.792 84.7791 4.936 84.4671 5.224C84.1631 5.504 83.9671 5.924 83.8791 6.484L83.3991 10H81.8151ZM88.9313 7.832C88.5633 7.832 88.2327 7.74667 87.9393 7.576C87.646 7.4 87.414 7.16533 87.2433 6.872C87.0727 6.57867 86.9873 6.25067 86.9873 5.888C86.9873 5.59467 87.0433 5.31733 87.1553 5.056C87.2727 4.79467 87.4327 4.56533 87.6353 4.368C87.838 4.17067 88.07 4.016 88.3313 3.904C88.598 3.78667 88.878 3.728 89.1713 3.728C89.534 3.728 89.8593 3.81333 90.1473 3.984C90.4407 4.15467 90.6727 4.384 90.8433 4.672C91.014 4.96 91.0993 5.28533 91.0993 5.648C91.0993 5.94667 91.0407 6.22933 90.9233 6.496C90.806 6.75733 90.646 6.98933 90.4433 7.192C90.246 7.38933 90.0167 7.54667 89.7553 7.664C89.494 7.776 89.2193 7.832 88.9313 7.832ZM88.9233 7.264C89.2113 7.264 89.478 7.192 89.7233 7.048C89.9687 6.89867 90.166 6.70133 90.3153 6.456C90.4647 6.21067 90.5393 5.94133 90.5393 5.648C90.5393 5.38667 90.478 5.15467 90.3553 4.952C90.238 4.744 90.0753 4.58133 89.8673 4.464C89.6647 4.34133 89.4353 4.28 89.1793 4.28C88.8647 4.28 88.5847 4.35467 88.3393 4.504C88.094 4.648 87.8993 4.84533 87.7553 5.096C87.6167 5.34133 87.5473 5.61067 87.5473 5.904C87.5473 6.16 87.606 6.392 87.7233 6.6C87.846 6.80267 88.0113 6.96533 88.2193 7.088C88.4273 7.20533 88.662 7.264 88.9233 7.264ZM88.0273 6.856L88.3233 4.688H89.1953C89.4247 4.688 89.6113 4.744 89.7553 4.856C89.8993 4.968 89.9713 5.13867 89.9713 5.368C89.9713 5.512 89.9393 5.64 89.8753 5.752C89.8113 5.85867 89.7233 5.944 89.6113 6.008L90.0273 6.856H89.4033L89.0513 6.12H88.7153L88.6193 6.856H88.0273ZM88.7873 5.624H89.1393C89.2033 5.624 89.2593 5.60267 89.3073 5.56C89.3607 5.512 89.3873 5.45067 89.3873 5.376C89.3873 5.32267 89.3687 5.28 89.3313 5.248C89.2993 5.21067 89.2513 5.192 89.1873 5.192H88.8513L88.7873 5.624Z" fill="white"/>
</svg>
